<?xml version="1.0" standalone="no"?>
<!DOCTYPE svg PUBLIC "-//W3C//DTD SVG 20010904//EN"
 "http://www.w3.org/TR/2001/REC-SVG-20010904/DTD/svg10.dtd">
<svg version="1.0" xmlns="http://www.w3.org/2000/svg"
 width="1506.000000pt" height="1506.000000pt" viewBox="0 0 1506.000000 1506.000000"
 preserveAspectRatio="xMidYMid meet">
<metadata>
Created by potrace 1.14, written by Peter Selinger 2001-2017
</metadata>
<g transform="translate(0.000000,1506.000000) scale(0.100000,-0.100000)"
fill="#000000" stroke="none">
<path d="M4638 15014 c-61 -33 -61 -25 -61 -619 0 -484 2 -544 17 -573 48 -93
207 -78 234 23 5 17 8 272 7 567 0 527 -1 538 -21 565 -12 15 -32 34 -45 40
-32 17 -98 16 -131 -3z"/>
<path d="M6255 14200 c-67 -14 -77 -29 -194 -293 -62 -138 -114 -269 -117
-290 -6 -49 17 -102 55 -125 43 -26 104 -16 163 29 37 28 53 50 84 119 20 47
47 108 60 135 119 263 129 299 101 354 -25 50 -97 83 -152 71z"/>
<path d="M3059 14177 c-19 -12 -43 -40 -53 -61 -25 -51 -18 -76 75 -283 39
-87 78 -174 86 -193 56 -129 85 -157 165 -161 74 -4 138 55 138 128 0 30 -189
475 -226 531 -40 61 -126 79 -185 39z"/>
<path d="M1379 13631 c-33 -32 -39 -45 -39 -80 0 -23 6 -54 14 -69 8 -15 180
-192 383 -394 276 -276 375 -368 393 -369 14 -1 44 -2 68 -3 23 -1 46 1 50 4
15 10 49 65 55 88 14 58 -4 81 -368 445 -441 441 -414 417 -472 417 -39 0 -50
-5 -84 -39z"/>
<path d="M7859 13652 c-49 -31 -769 -760 -771 -779 -4 -55 -3 -71 11 -100 18
-39 59 -58 128 -57 l53 1 363 364 c199 200 373 378 385 396 73 104 -63 246
-169 175z"/>
<path d="M4518 12995 c-2 -2 -32 -6 -68 -9 -76 -8 -126 -14 -160 -21 -13 -3
-42 -7 -65 -11 -56 -8 -256 -58 -340 -84 -187 -60 -411 -163 -579 -267 -89
-55 -186 -121 -196 -132 -3 -3 -30 -25 -60 -47 -179 -133 -407 -376 -554 -591
-31 -46 -56 -85 -56 -87 0 -3 -13 -25 -29 -48 -78 -115 -202 -394 -259 -583
-77 -253 -82 -317 -25 -373 7 -8 11 -17 8 -21 -9 -16 -20 -202 -20 -351 1
-144 8 -270 20 -330 3 -14 7 -38 10 -55 6 -39 13 -73 21 -106 6 -27 0 -34
-107 -119 -99 -79 -316 -306 -422 -440 -191 -242 -382 -600 -476 -894 -33
-104 -85 -307 -96 -376 -4 -25 -9 -54 -11 -65 -19 -99 -34 -293 -35 -435 -1
-78 9 -263 16 -300 1 -8 6 -44 10 -80 4 -36 9 -72 10 -80 1 -8 6 -35 10 -60
12 -72 63 -128 123 -134 23 -3 28 -11 52 -102 43 -159 102 -325 156 -438 8
-16 13 -31 11 -32 -2 -2 -50 -20 -107 -39 -279 -97 -529 -254 -741 -467 -79
-80 -206 -230 -217 -258 -3 -8 -9 -17 -12 -20 -15 -11 -113 -184 -154 -271
-122 -263 -175 -517 -171 -824 3 -180 21 -308 69 -485 44 -158 152 -389 251
-535 37 -55 70 -102 74 -105 3 -3 24 -27 46 -55 100 -126 279 -285 435 -387
83 -54 279 -153 380 -192 76 -29 230 -70 315 -85 33 -5 76 -13 95 -17 19 -4
256 -9 526 -11 484 -5 492 -4 533 16 22 12 48 35 56 51 9 17 23 30 33 31 9 0
179 0 377 1 334 0 360 -1 370 -18 5 -9 22 -31 37 -48 l26 -31 3404 0 c1872 0
3431 3 3464 8 57 7 130 19 179 31 45 11 155 45 165 51 6 4 315 7 687 7 l675 0
16 -32 c16 -33 48 -59 79 -65 10 -2 180 -4 378 -4 l360 -1 -35 -21 c-259 -157
-414 -317 -533 -554 -44 -88 -102 -255 -112 -325 -2 -19 -9 -62 -14 -94 -12
-85 -6 -277 13 -378 20 -105 55 -217 100 -313 33 -71 138 -239 157 -250 5 -4
0 -19 -12 -37 -19 -27 -24 -55 -20 -111 1 -24 113 -131 209 -200 133 -95 358
-196 497 -223 22 -4 42 -8 45 -9 12 -3 118 -18 150 -21 618 -59 1233 335 1440
923 33 92 58 184 65 235 28 212 25 349 -11 523 -79 382 -346 740 -699 937
-124 70 -310 137 -416 152 -24 3 -55 9 -69 12 -14 4 -167 8 -340 10 -173 2
-342 4 -375 4 l-60 1 80 29 c133 49 395 185 528 273 129 87 302 223 371 293
41 41 42 41 108 38 99 -4 158 15 204 66 109 120 257 327 353 494 47 81 161
308 161 321 0 3 9 24 20 48 42 89 130 380 155 512 12 60 42 250 43 265 0 8 4
53 8 100 13 149 8 430 -11 565 -75 533 -259 985 -569 1400 -151 202 -382 444
-527 551 -18 13 -35 27 -38 32 -11 15 -108 81 -133 91 -48 18 -143 -28 -159
-78 -4 -12 -19 -7 -65 21 -143 87 -387 208 -417 208 -7 0 -17 4 -23 8 -5 5
-44 21 -86 36 -43 16 -76 31 -74 35 27 43 27 737 1 891 -3 14 -7 48 -10 75 -4
28 -8 57 -10 65 -2 8 -7 35 -10 60 -4 25 -15 86 -26 135 -23 101 -27 121 -33
150 -2 11 -18 69 -35 128 -116 396 -275 742 -495 1077 -70 106 -236 334 -255
350 -3 3 -33 37 -65 75 -92 109 -350 361 -466 456 -199 163 -393 297 -596 412
-112 63 -278 144 -404 196 -58 23 -114 47 -125 52 -146 63 -567 176 -755 203
-19 2 -71 10 -115 16 -44 7 -98 14 -120 15 -392 31 -705 22 -1015 -31 -47 -8
-101 -17 -120 -20 -27 -5 -300 -73 -390 -98 -131 -37 -380 -136 -555 -222
-221 -108 -309 -159 -498 -286 -33 -22 -60 -38 -62 -36 -1 2 -31 39 -66 83
-92 117 -206 238 -322 341 l-57 51 14 33 c15 36 7 84 -21 127 -30 45 -310 228
-453 295 -275 129 -558 214 -815 243 -27 3 -66 8 -85 11 -36 5 -457 13 -462 9z
m1282 -2423 c0 -4 -28 -57 -63 -118 -80 -140 -173 -330 -207 -426 -8 -22 -18
-34 -26 -31 -13 5 58 159 159 343 29 52 57 106 62 120 11 25 68 120 72 120 2
0 3 -4 3 -8z"/>
<path d="M890 12018 c-42 -29 -64 -85 -55 -143 8 -56 31 -79 111 -113 62 -27
96 -42 229 -102 37 -17 95 -43 171 -76 38 -16 100 -16 134 2 14 7 38 26 54 43
23 24 29 39 29 75 0 72 -31 103 -154 155 -102 44 -189 83 -319 144 -88 41
-154 46 -200 15z"/>
<path d="M95 10451 c-28 -5 -64 -31 -77 -55 -18 -32 -18 -97 -1 -133 31 -66
26 -66 623 -66 585 0 578 0 616 58 20 31 22 91 5 134 -28 66 -18 65 -611 66
-294 0 -544 -1 -555 -4z"/>
<path d="M4634 1790 c-37 -24 -56 -64 -56 -115 0 -58 53 -117 105 -117 l22 0
-1 -182 c0 -99 1 -186 3 -192 3 -8 752 -12 2811 -12 1544 0 2813 -1 2819 -1 9
-1 10 -7 3 -24 -48 -111 -51 -302 -6 -467 10 -38 42 -109 68 -151 33 -55 33
-54 8 -86 -23 -29 -27 -92 -8 -126 34 -65 222 -184 378 -239 105 -37 180 -47
310 -44 211 5 383 71 545 209 403 343 426 930 51 1302 -120 119 -242 191 -412
242 -56 17 -225 18 -3334 20 -3269 3 -3275 3 -3306 -17z"/>
</g>
</svg>
